<?xml version="1.0" encoding="UTF-8"?>
<svg id="Capa_2" data-name="Capa 2" xmlns="http://www.w3.org/2000/svg" viewBox="0 0 210.34 50.34">
  <defs>
    <style>
      .cls-1 {
        fill: #002663;
      }

      .cls-2 {
        fill: #00205c;
      }

      .cls-3 {
        fill: #898a8d;
      }
    </style>
  </defs>
  <g id="Capa_1-2" data-name="Capa 1">
    <g>
      <g>
        <path class="cls-1" d="m25.29,26.7c.81,0,1.47-.66,1.47-1.47s-.66-1.47-1.47-1.47-1.47.66-1.47,1.47.66,1.47,1.47,1.47"/>
        <path class="cls-1" d="m29.16,26.2c.93,0,1.68-.75,1.68-1.68s-.75-1.68-1.68-1.68-1.68.75-1.68,1.68.75,1.68,1.68,1.68"/>
        <path class="cls-1" d="m33.26,24.28c1.1,0,2-.89,2-1.99s-.89-1.99-2-1.99-1.99.89-1.99,1.99.89,1.99,1.99,1.99"/>
        <path class="cls-1" d="m36.63,24.38c0-1.57,1.27-2.84,2.84-2.84s2.83,1.27,2.83,2.84-1.27,2.83-2.83,2.83-2.84-1.27-2.84-2.83"/>
        <path class="cls-1" d="m46.65,25.95c2,0,3.63-1.63,3.63-3.63s-1.63-3.63-3.63-3.63-3.63,1.63-3.63,3.63,1.63,3.63,3.63,3.63"/>
        <path class="cls-1" d="m46.2,33.8c2,0,3.63-1.63,3.63-3.63s-1.63-3.63-3.63-3.63-3.63,1.62-3.63,3.63,1.63,3.63,3.63,3.63"/>
        <path class="cls-1" d="m39.38,37.61c0-2.01,1.63-3.63,3.63-3.63s3.63,1.62,3.63,3.63-1.63,3.63-3.63,3.63-3.63-1.63-3.63-3.63"/>
        <path class="cls-1" d="m37.41,46.82c2,0,3.63-1.62,3.63-3.63s-1.63-3.63-3.63-3.63-3.63,1.63-3.63,3.63,1.63,3.63,3.63,3.63"/>
        <path class="cls-1" d="m26.51,46.27c0-2,1.62-3.63,3.63-3.63s3.63,1.62,3.63,3.63-1.62,3.63-3.63,3.63-3.63-1.62-3.63-3.63"/>
        <path class="cls-1" d="m18.49,46.71c0-2.01,1.62-3.63,3.63-3.63s3.63,1.63,3.63,3.63-1.63,3.63-3.63,3.63-3.63-1.62-3.63-3.63"/>
        <path class="cls-1" d="m10.7,44.01c0-2,1.62-3.63,3.63-3.63s3.63,1.62,3.63,3.63-1.62,3.63-3.63,3.63-3.63-1.62-3.63-3.63"/>
        <path class="cls-1" d="m4.74,38.94c0-2.01,1.62-3.63,3.63-3.63s3.63,1.62,3.63,3.63-1.62,3.63-3.63,3.63-3.63-1.62-3.63-3.63"/>
        <path class="cls-1" d="m.93,31.85c0-2,1.63-3.63,3.63-3.63s3.63,1.62,3.63,3.63-1.62,3.63-3.63,3.63-3.63-1.63-3.63-3.63"/>
        <path class="cls-1" d="m0,23.63c0-2,1.62-3.63,3.63-3.63s3.63,1.62,3.63,3.63-1.63,3.63-3.63,3.63-3.63-1.62-3.63-3.63"/>
        <path class="cls-1" d="m44.32,18.68c2,0,3.63-1.63,3.63-3.63s-1.63-3.63-3.63-3.63-3.63,1.63-3.63,3.63,1.63,3.63,3.63,3.63"/>
        <path class="cls-1" d="m35.78,9.05c0-2,1.63-3.63,3.63-3.63s3.63,1.63,3.63,3.63-1.63,3.63-3.63,3.63-3.63-1.62-3.63-3.63"/>
        <path class="cls-1" d="m29.09,5.01c0-2,1.63-3.63,3.63-3.63s3.63,1.63,3.63,3.63-1.62,3.63-3.63,3.63-3.63-1.62-3.63-3.63"/>
        <path class="cls-1" d="m21.25,3.63c0-2,1.62-3.63,3.63-3.63s3.63,1.63,3.63,3.63-1.63,3.63-3.63,3.63-3.63-1.63-3.63-3.63"/>
        <path class="cls-1" d="m17,8.97c2,0,3.63-1.62,3.63-3.63s-1.62-3.63-3.63-3.63-3.63,1.63-3.63,3.63,1.62,3.63,3.63,3.63"/>
        <path class="cls-1" d="m6.68,9.56c0-2,1.63-3.63,3.63-3.63s3.63,1.62,3.63,3.63-1.62,3.63-3.63,3.63-3.63-1.62-3.63-3.63"/>
        <path class="cls-1" d="m2.1,15.86c0-2.01,1.62-3.63,3.63-3.63s3.63,1.62,3.63,3.63-1.63,3.63-3.63,3.63-3.63-1.63-3.63-3.63"/>
        <path class="cls-1" d="m30.68,13.83c0-1.56,1.27-2.83,2.83-2.83s2.84,1.27,2.84,2.83-1.27,2.84-2.84,2.84-2.83-1.27-2.83-2.84"/>
        <path class="cls-1" d="m24.92,11.27c0-1.56,1.27-2.83,2.83-2.83s2.84,1.27,2.84,2.83-1.27,2.84-2.84,2.84-2.83-1.27-2.83-2.84"/>
        <path class="cls-1" d="m35.66,30.41c0-1.57,1.27-2.84,2.84-2.84s2.83,1.27,2.83,2.84-1.27,2.83-2.83,2.83-2.84-1.27-2.84-2.83"/>
        <path class="cls-1" d="m37.7,21.29c1.57,0,2.84-1.27,2.84-2.84s-1.27-2.83-2.84-2.83-2.84,1.27-2.84,2.83,1.27,2.84,2.84,2.84"/>
        <path class="cls-1" d="m18.59,11.53c0-1.57,1.27-2.83,2.84-2.83s2.83,1.27,2.83,2.83-1.27,2.84-2.83,2.84-2.84-1.27-2.84-2.84"/>
        <path class="cls-1" d="m12.97,14.5c0-1.56,1.27-2.83,2.84-2.83s2.84,1.27,2.84,2.83-1.27,2.84-2.84,2.84-2.84-1.27-2.84-2.84"/>
        <path class="cls-1" d="m9.35,19.66c0-1.56,1.27-2.83,2.83-2.83s2.83,1.27,2.83,2.83-1.27,2.84-2.83,2.84-2.83-1.27-2.83-2.84"/>
        <path class="cls-1" d="m8.07,26.15c0-1.56,1.27-2.83,2.84-2.83s2.83,1.27,2.83,2.83-1.27,2.84-2.83,2.84-2.84-1.27-2.84-2.84"/>
        <path class="cls-1" d="m10.06,32.55c0-1.56,1.27-2.83,2.84-2.83s2.84,1.27,2.84,2.83-1.27,2.84-2.84,2.84-2.84-1.27-2.84-2.84"/>
        <path class="cls-1" d="m14.66,37.21c0-1.57,1.27-2.83,2.84-2.83s2.84,1.27,2.84,2.83-1.27,2.84-2.84,2.84-2.84-1.27-2.84-2.84"/>
        <path class="cls-1" d="m20.56,39.37c0-1.56,1.27-2.83,2.83-2.83s2.84,1.27,2.84,2.83-1.27,2.84-2.84,2.84-2.83-1.27-2.83-2.84"/>
        <path class="cls-1" d="m29.76,41.61c1.56,0,2.83-1.27,2.83-2.83s-1.27-2.83-2.83-2.83-2.84,1.27-2.84,2.83,1.27,2.83,2.84,2.83"/>
        <path class="cls-1" d="m35.03,38.43c1.57,0,2.84-1.27,2.84-2.84s-1.27-2.83-2.84-2.83-2.84,1.27-2.84,2.83,1.27,2.84,2.84,2.84"/>
        <path class="cls-1" d="m26.51,23.3c.93,0,1.68-.75,1.68-1.68s-.75-1.68-1.68-1.68-1.68.75-1.68,1.68.75,1.68,1.68,1.68"/>
        <path class="cls-1" d="m20.93,22.29c0-.93.75-1.68,1.68-1.68s1.68.75,1.68,1.68-.75,1.68-1.68,1.68-1.68-.75-1.68-1.68"/>
        <path class="cls-1" d="m21.39,27.84c.93,0,1.68-.75,1.68-1.68s-.75-1.68-1.68-1.68-1.68.75-1.68,1.68.75,1.68,1.68,1.68"/>
        <path class="cls-1" d="m24.12,30.74c.93,0,1.68-.75,1.68-1.68s-.75-1.68-1.68-1.68-1.68.75-1.68,1.68.75,1.68,1.68,1.68"/>
        <path class="cls-1" d="m27.84,29.96c.93,0,1.68-.75,1.68-1.68s-.75-1.68-1.68-1.68-1.68.75-1.68,1.68.75,1.68,1.68,1.68"/>
        <path class="cls-1" d="m23.72,16.63c0-1.1.89-2,2-2s1.99.89,1.99,2-.89,1.99-1.99,1.99-2-.89-2-1.99"/>
        <path class="cls-1" d="m28.34,18.27c0-1.1.89-2,2-2s2,.89,2,2-.89,1.99-2,1.99-2-.89-2-1.99"/>
        <path class="cls-1" d="m21.03,19.64c1.1,0,1.99-.89,1.99-2s-.89-1.99-1.99-1.99-2,.89-2,1.99.89,2,2,2"/>
        <path class="cls-1" d="m15.71,20.98c0-1.1.89-2,2-2s1.99.89,1.99,2-.89,1.99-1.99,1.99-2-.89-2-1.99"/>
        <path class="cls-1" d="m14.63,26.01c0-1.1.89-1.99,2-1.99s1.99.89,1.99,1.99-.89,2-1.99,2-2-.89-2-2"/>
        <path class="cls-1" d="m18.57,32.65c1.1,0,1.99-.89,1.99-2s-.89-2-1.99-2-1.99.9-1.99,2,.89,2,1.99,2"/>
        <path class="cls-1" d="m22.6,35.45c1.1,0,2-.9,2-2s-.89-2-2-2-1.99.89-1.99,2,.89,2,1.99,2"/>
        <path class="cls-1" d="m25.28,33.62c0-1.1.89-2,2-2s2,.89,2,2-.89,1.99-2,1.99-2-.89-2-1.99"/>
        <path class="cls-1" d="m31.33,33.3c1.1,0,1.99-.89,1.99-2s-.89-2-1.99-2-2,.89-2,2,.89,2,2,2"/>
        <path class="cls-1" d="m31.55,26.97c0-1.1.89-1.99,1.99-1.99s2,.89,2,1.99-.89,2-2,2-1.99-.89-1.99-2"/>
      </g>
      <g>
        <g>
          <path class="cls-2" d="m71.89,23c.18-.74.46-1.76.77-3.19.43-.03,1.84.03,2.27.1.08.97.08,2.68.08,3.63l-.33.69c-1.43.97-3.73,1.76-6.34,1.76-5.47,0-8.92-3.45-8.92-9.12s4.14-9.53,9.38-9.53c2.35,0,4.29.64,5.95,1.48l.36.69c-.2,1.33-.54,3.14-.77,4.42-.46.03-1.61,0-2.12-.1-.23-1.53-.51-2.91-.64-3.63-.72-.41-1.76-.66-2.94-.66-1.48,0-2.78.38-3.68,1.02-1.18,1.4-1.99,3.47-1.99,6.11,0,4.27,2.09,7.03,5.72,7.03,1.51,0,2.58-.26,3.19-.69Z"/>
          <path class="cls-2" d="m76.67,17.2c0-5.95,3.73-9.86,9.15-9.86,4.9,0,8.28,3.47,8.28,8.86,0,5.7-3.58,9.78-8.86,9.78s-8.56-3.45-8.56-8.79Zm12.31,5.42c.66-.87,1.61-2.81,1.61-5.95,0-4.37-1.58-7.1-5.26-7.1-1.38,0-2.66.51-3.5,1.12-.95,1.3-1.66,3.37-1.66,6.18,0,4.27,1.81,6.9,5.31,6.9,1.53,0,2.76-.51,3.5-1.15Z"/>
          <path class="cls-2" d="m108.87,25.7l-2.3-3.07c-2.35-3.14-5.29-6.8-7.64-9.71.05,4.57.15,10.04.41,10.5.26.36,1.76.64,2.91.89l-.26,1.28h-7.33l-.26-1.28,2.27-.66c.1-.87.18-3.19.18-6.9-.03-4.34-.05-6.49-.31-6.85-.41-.31-1.43-.66-2.22-.92l.26-1.28c1.61,0,3.47-.05,4.96-.08,1.76,2.91,6.11,8.33,9.73,12.88-.03-5.26-.15-10.17-.43-10.63-.2-.33-1.69-.64-2.68-.89l.28-1.28h7.28l.28,1.28-2.3.69c-.2,1.99-.33,8.05-.33,15.76l-2.5.26Z"/>
          <path class="cls-2" d="m120.34,25.6h-7.03l-.26-1.28,2.07-.66c1.74-4.19,3.47-8.94,5.13-13.44l.74-2.5c1.2-.15,3.17-.28,4.32-.31.2.82.54,1.71.95,2.86,1.71,4.65,3.73,10.04,5.03,13.39l2.09.66-.26,1.28h-7.77l-.28-1.28,2.56-.66c-.43-1.15-.92-2.5-1.43-4.01l-6.9.13c-.46,1.33-.87,2.66-1.28,3.88l2.58.66-.28,1.28Zm5.24-7.74c-.89-2.5-1.89-5.26-2.94-8.02-.92,2.58-1.84,5.29-2.71,7.94l5.65.08Z"/>
          <path class="cls-2" d="m137.05,23.66c.08-.43.15-3.5.15-4.78v-4.6c0-1.58,0-4.16-.2-4.44-.23-.31-1.4-.61-2.25-.84l.28-1.28h7.66l.28,1.28-2.3.66c-.08.43-.15,3.5-.15,4.78v1.43l8.76.08v-1.66c0-1.58,0-4.16-.2-4.44-.23-.31-1.4-.61-2.25-.84l.28-1.28h7.66l.28,1.28-2.3.66c-.08.43-.15,3.5-.15,4.78v4.6c0,1.58,0,4.16.2,4.45.23.31,1.41.61,2.25.84l-.28,1.28h-7.66l-.28-1.28,2.3-.66c.08-.43.15-3.5.15-4.78v-1.15l-8.76.13v1.17c0,1.58,0,4.16.2,4.45.23.31,1.41.61,2.25.84l-.28,1.28h-7.66l-.28-1.28,2.3-.66Z"/>
          <path class="cls-2" d="m168.29,23c.18-.74.46-1.76.77-3.19.43-.03,1.84.03,2.27.1.08.97.08,2.68.08,3.63l-.33.69c-1.43.97-3.73,1.76-6.34,1.76-5.47,0-8.92-3.45-8.92-9.12s4.14-9.53,9.38-9.53c2.35,0,4.29.64,5.95,1.48l.36.69c-.2,1.33-.54,3.14-.77,4.42-.46.03-1.61,0-2.12-.1-.23-1.53-.51-2.91-.64-3.63-.72-.41-1.76-.66-2.94-.66-1.48,0-2.78.38-3.68,1.02-1.18,1.4-1.99,3.47-1.99,6.11,0,4.27,2.09,7.03,5.72,7.03,1.51,0,2.58-.26,3.19-.69Z"/>
          <path class="cls-2" d="m180.55,23.66c.05-.36.1-2.15.13-3.68-1.56-2.68-4.34-7.49-6-10.35l-1.92-.64.26-1.28h7.87l.28,1.28-2.53.66c1.05,2.1,2.63,4.91,4.45,8.02,1.46-2.66,2.86-5.31,4.24-8l-2.4-.69.26-1.28h6.74l.26,1.28-2.12.74c-1.63,2.86-3.6,6.13-6.03,10.22,0,1.53.03,3.3.2,3.53.2.31,1.38.61,2.25.84l-.28,1.28h-7.69l-.28-1.28,2.32-.66Z"/>
          <path class="cls-2" d="m200.13,23.66c.08-.43.13-2.76.13-4.78v-9.45h-.46c-1.1,0-2.27.05-3.09.15l-.72,3.32c-.54.03-1.74,0-2.25-.08-.05-1.64-.05-3.4,0-5.11h8.61c3.01,0,5.47-.03,7.38-.15.15.2.51.64.61.84-.08,1.35-.26,2.96-.43,4.44-.46.05-1.53.03-2.02-.02l-.64-3.24c-.84-.1-1.97-.13-2.99-.13h-.66v9.58c0,1.58,0,4.16.2,4.45.2.31,1.41.61,2.25.84l-.28,1.28h-7.69l-.28-1.28,2.32-.66Z"/>
        </g>
        <g>
          <path class="cls-3" d="m60.37,36.56c-.3-.16-.53-.38-.7-.66-.17-.28-.25-.6-.25-.96s.08-.68.25-.96c.17-.28.4-.5.7-.66.3-.16.63-.24,1-.24.31,0,.59.05.85.16.25.11.46.27.63.47l-.53.49c-.24-.28-.54-.42-.9-.42-.22,0-.42.05-.6.15-.17.1-.31.23-.41.41-.1.18-.15.37-.15.6s.05.42.15.6c.1.17.23.31.41.41.17.1.37.15.6.15.36,0,.66-.14.9-.43l.53.49c-.17.21-.38.37-.64.48-.25.11-.54.16-.85.16-.37,0-.7-.08-.99-.24Z"/>
          <path class="cls-3" d="m64.58,36.56c-.3-.16-.53-.38-.7-.67-.17-.28-.25-.6-.25-.95s.08-.67.25-.95c.17-.28.4-.5.7-.67.3-.16.64-.24,1.01-.24s.71.08,1.01.24c.3.16.53.38.7.67.17.28.26.6.26.95s-.09.67-.26.95c-.17.28-.41.5-.7.67-.3.16-.63.24-1.01.24s-.71-.08-1.01-.24Zm1.59-.61c.17-.1.31-.23.4-.41.1-.17.15-.37.15-.6s-.05-.42-.15-.6c-.1-.17-.23-.31-.4-.41-.17-.1-.36-.15-.58-.15s-.4.05-.58.15c-.17.1-.31.23-.4.41-.1.18-.15.37-.15.6s.05.42.15.6c.1.17.23.31.4.41.17.1.36.15.58.15s.4-.05.58-.15Z"/>
          <path class="cls-3" d="m72,33.14v3.6h-.68l-1.79-2.18v2.18h-.82v-3.6h.69l1.79,2.18v-2.18h.82Z"/>
          <path class="cls-3" d="m73.72,36.68c-.27-.08-.48-.18-.64-.3l.28-.63c.15.11.34.2.55.27.21.07.42.1.64.1.24,0,.41-.04.52-.1.11-.07.17-.16.17-.28,0-.09-.03-.16-.1-.21-.07-.06-.15-.1-.26-.14-.1-.03-.25-.07-.42-.11-.27-.06-.5-.13-.67-.19-.17-.07-.32-.17-.45-.31-.13-.14-.19-.34-.19-.58,0-.21.06-.4.17-.57.11-.17.28-.3.51-.4.23-.1.51-.15.83-.15.23,0,.45.03.67.08.22.05.41.13.58.24l-.26.63c-.33-.19-.66-.28-1-.28-.23,0-.41.04-.52.11-.11.08-.17.18-.17.3s.06.22.19.27c.13.06.32.12.59.18.27.06.5.13.67.2.17.06.32.17.45.31.12.14.19.33.19.57,0,.21-.06.39-.17.56-.11.17-.29.3-.52.4-.23.1-.51.15-.84.15-.28,0-.56-.04-.82-.12Z"/>
          <path class="cls-3" d="m79.94,36.07v.67h-2.79v-3.6h2.72v.67h-1.89v.78h1.67v.65h-1.67v.83h1.96Z"/>
          <path class="cls-3" d="m81.11,36.66c-.2-.09-.37-.22-.5-.39l.46-.56c.2.26.42.4.67.4.34,0,.51-.2.51-.6v-1.71h-1.26v-.67h2.09v2.33c0,.44-.11.77-.33.99-.22.22-.54.33-.97.33-.24,0-.47-.05-.67-.14Z"/>
          <path class="cls-3" d="m85.15,36.56c-.3-.16-.53-.38-.7-.67-.17-.28-.25-.6-.25-.95s.08-.67.25-.95c.17-.28.4-.5.7-.67.3-.16.64-.24,1.01-.24s.71.08,1.01.24c.3.16.53.38.7.67.17.28.26.6.26.95s-.09.67-.26.95c-.17.28-.41.5-.7.67-.3.16-.63.24-1.01.24s-.71-.08-1.01-.24Zm1.59-.61c.17-.1.31-.23.4-.41.1-.17.15-.37.15-.6s-.05-.42-.15-.6c-.1-.17-.23-.31-.4-.41-.17-.1-.36-.15-.58-.15s-.4.05-.58.15c-.17.1-.31.23-.4.41-.1.18-.15.37-.15.6s.05.42.15.6c.1.17.23.31.4.41.17.1.36.15.58.15s.4-.05.58-.15Z"/>
          <path class="cls-3" d="m94.53,33.14v3.6h-.68l-1.79-2.18v2.18h-.82v-3.6h.69l1.79,2.18v-2.18h.82Z"/>
          <path class="cls-3" d="m98.27,35.97h-1.67l-.32.77h-.85l1.6-3.6h.82l1.61,3.6h-.87l-.32-.77Zm-.26-.63l-.57-1.38-.57,1.38h1.14Z"/>
          <path class="cls-3" d="m101.03,36.56c-.3-.16-.53-.38-.7-.66-.17-.28-.25-.6-.25-.96s.08-.68.25-.96c.17-.28.4-.5.7-.66.3-.16.63-.24,1-.24.31,0,.59.05.85.16.25.11.46.27.63.47l-.53.49c-.24-.28-.54-.42-.9-.42-.22,0-.42.05-.6.15-.17.1-.31.23-.41.41-.1.18-.15.37-.15.6s.05.42.15.6c.1.17.23.31.41.41.17.1.37.15.6.15.36,0,.66-.14.9-.43l.53.49c-.17.21-.38.37-.64.48-.25.11-.54.16-.85.16-.37,0-.7-.08-.99-.24Z"/>
          <path class="cls-3" d="m104.58,33.14h.83v3.6h-.83v-3.6Z"/>
          <path class="cls-3" d="m107.51,36.56c-.3-.16-.53-.38-.7-.67-.17-.28-.25-.6-.25-.95s.08-.67.25-.95c.17-.28.4-.5.7-.67.3-.16.64-.24,1.01-.24s.71.08,1.01.24c.3.16.53.38.7.67.17.28.26.6.26.95s-.09.67-.26.95c-.17.28-.41.5-.7.67-.3.16-.63.24-1.01.24s-.71-.08-1.01-.24Zm1.59-.61c.17-.1.31-.23.4-.41.1-.17.15-.37.15-.6s-.05-.42-.15-.6c-.1-.17-.23-.31-.4-.41-.17-.1-.36-.15-.58-.15s-.4.05-.58.15c-.17.1-.31.23-.4.41-.1.18-.15.37-.15.6s.05.42.15.6c.1.17.23.31.4.41.17.1.36.15.58.15s.4-.05.58-.15Z"/>
          <path class="cls-3" d="m114.93,33.14v3.6h-.68l-1.79-2.18v2.18h-.82v-3.6h.69l1.79,2.18v-2.18h.82Z"/>
          <path class="cls-3" d="m118.66,35.97h-1.67l-.32.77h-.85l1.6-3.6h.82l1.61,3.6h-.87l-.32-.77Zm-.26-.63l-.57-1.38-.57,1.38h1.14Z"/>
          <path class="cls-3" d="m120.75,33.14h.83v2.92h1.8v.68h-2.64v-3.6Z"/>
          <path class="cls-3" d="m126.33,33.14h1.63c.39,0,.74.07,1.04.22.3.15.53.36.7.63.17.27.25.59.25.95s-.08.67-.25.95c-.17.27-.4.48-.7.63-.3.15-.65.22-1.04.22h-1.63v-3.6Zm1.59,2.91c.36,0,.65-.1.86-.3.21-.2.32-.47.32-.81s-.11-.61-.32-.81c-.21-.2-.5-.3-.86-.3h-.76v2.23h.76Z"/>
          <path class="cls-3" d="m133.88,36.07v.67h-2.79v-3.6h2.72v.67h-1.89v.78h1.67v.65h-1.67v.83h1.96Z"/>
          <path class="cls-3" d="m140.32,33.14v3.6h-.83v-1.48h-1.63v1.48h-.83v-3.6h.83v1.42h1.63v-1.42h.83Z"/>
          <path class="cls-3" d="m142.08,36.37c-.29-.28-.43-.69-.43-1.22v-2.01h.83v1.98c0,.64.27.97.8.97.26,0,.46-.08.6-.23.14-.16.21-.4.21-.73v-1.98h.82v2.01c0,.53-.14.93-.43,1.22-.29.28-.69.43-1.2.43s-.91-.14-1.2-.43Z"/>
          <path class="cls-3" d="m149.52,36.74v-2.16s-1.06,1.78-1.06,1.78h-.37l-1.05-1.73v2.11h-.78v-3.6h.69l1.35,2.24,1.33-2.24h.68v3.6s-.77,0-.77,0Z"/>
          <path class="cls-3" d="m154.04,35.97h-1.67l-.32.77h-.85l1.6-3.6h.82l1.61,3.6h-.87l-.32-.77Zm-.26-.63l-.57-1.38-.57,1.38h1.14Z"/>
          <path class="cls-3" d="m159.42,33.14v3.6h-.68l-1.79-2.18v2.18h-.82v-3.6h.69l1.79,2.18v-2.18h.82Z"/>
          <path class="cls-3" d="m160.79,33.14h.83v3.6h-.83v-3.6Z"/>
          <path class="cls-3" d="m162.99,33.14h1.63c.39,0,.74.07,1.04.22.3.15.53.36.7.63.17.27.25.59.25.95s-.08.67-.25.95c-.17.27-.4.48-.7.63-.3.15-.64.22-1.04.22h-1.63v-3.6Zm1.59,2.91c.36,0,.65-.1.86-.3.21-.2.32-.47.32-.81s-.11-.61-.32-.81c-.21-.2-.5-.3-.86-.3h-.76v2.23h.76Z"/>
          <path class="cls-3" d="m170.06,35.97h-1.67l-.32.77h-.85l1.6-3.6h.82l1.61,3.6h-.87l-.32-.77Zm-.26-.63l-.57-1.38-.57,1.38h1.14Z"/>
          <path class="cls-3" d="m172.14,33.14h1.63c.39,0,.74.07,1.04.22.3.15.53.36.7.63.17.27.25.59.25.95s-.08.67-.25.95c-.17.27-.4.48-.7.63-.3.15-.65.22-1.04.22h-1.63v-3.6Zm1.59,2.91c.36,0,.65-.1.86-.3.21-.2.32-.47.32-.81s-.11-.61-.32-.81c-.21-.2-.5-.3-.86-.3h-.76v2.23h.76Z"/>
          <path class="cls-3" d="m179.69,36.07v.67h-2.79v-3.6h2.72v.67h-1.89v.78h1.67v.65h-1.67v.83h1.96Z"/>
          <path class="cls-3" d="m181.22,36.68c-.27-.08-.48-.18-.64-.3l.28-.63c.15.11.34.2.55.27.21.07.42.1.64.1.24,0,.41-.04.52-.1.11-.07.17-.16.17-.28,0-.09-.03-.16-.1-.21-.07-.06-.15-.1-.26-.14-.1-.03-.25-.07-.42-.11-.27-.06-.5-.13-.67-.19-.17-.07-.32-.17-.45-.31-.13-.14-.19-.34-.19-.58,0-.21.06-.4.17-.57.11-.17.28-.3.51-.4.23-.1.51-.15.84-.15.23,0,.45.03.67.08.22.05.41.13.58.24l-.26.63c-.33-.19-.66-.28-1-.28-.23,0-.41.04-.52.11-.11.08-.17.18-.17.3s.06.22.19.27c.13.06.32.12.59.18.27.06.5.13.67.2.17.06.32.17.45.31.12.14.19.33.19.57,0,.21-.06.39-.17.56-.11.17-.29.3-.52.4-.23.1-.51.15-.84.15-.28,0-.56-.04-.82-.12Z"/>
          <path class="cls-3" d="m60.51,42.76c-.3-.16-.53-.38-.7-.66-.17-.28-.25-.6-.25-.96s.08-.68.25-.96c.17-.28.4-.5.7-.66.3-.16.63-.24,1-.24.31,0,.59.05.85.16.25.11.46.27.63.47l-.53.49c-.24-.28-.54-.42-.9-.42-.22,0-.42.05-.6.15-.17.1-.31.23-.41.41-.1.18-.15.37-.15.6s.05.42.15.6c.1.17.23.31.41.41.17.1.37.15.6.15.36,0,.66-.14.9-.43l.53.49c-.17.21-.38.37-.64.48-.25.11-.54.16-.85.16-.37,0-.7-.08-.99-.24Z"/>
          <path class="cls-3" d="m64.06,39.34h.83v3.6h-.83v-3.6Z"/>
          <path class="cls-3" d="m69.05,42.27v.67h-2.79v-3.6h2.72v.67h-1.89v.78h1.67v.65h-1.67v.83h1.96Z"/>
          <path class="cls-3" d="m73.52,39.34v3.6h-.68l-1.79-2.18v2.18h-.82v-3.6h.69l1.79,2.18v-2.18h.82Z"/>
          <path class="cls-3" d="m75.62,42.76c-.3-.16-.53-.38-.7-.66-.17-.28-.25-.6-.25-.96s.08-.68.25-.96c.17-.28.4-.5.7-.66.3-.16.63-.24,1-.24.31,0,.59.05.85.16.25.11.46.27.63.47l-.53.49c-.24-.28-.54-.42-.9-.42-.22,0-.42.05-.6.15-.17.1-.31.23-.41.41-.1.18-.15.37-.15.6s.05.42.15.6c.1.17.23.31.41.41.17.1.37.15.6.15.36,0,.66-.14.9-.43l.53.49c-.17.21-.38.37-.64.48-.25.11-.54.16-.85.16-.37,0-.7-.08-.99-.24Z"/>
          <path class="cls-3" d="m79.17,39.34h.83v3.6h-.83v-3.6Z"/>
          <path class="cls-3" d="m83.74,42.17h-1.67l-.32.77h-.85l1.6-3.6h.82l1.61,3.6h-.87l-.32-.77Zm-.26-.63l-.57-1.38-.57,1.38h1.14Z"/>
          <path class="cls-3" d="m86.18,42.89c-.27-.08-.48-.18-.64-.3l.28-.63c.15.11.34.2.55.27.21.07.42.1.64.1.24,0,.41-.04.52-.1.11-.07.17-.16.17-.28,0-.09-.03-.16-.1-.21-.07-.06-.15-.1-.26-.14-.1-.03-.25-.07-.42-.11-.27-.06-.5-.13-.67-.19-.17-.07-.32-.17-.45-.31-.13-.14-.19-.34-.19-.58,0-.21.06-.4.17-.57.11-.17.28-.3.51-.4.23-.1.51-.15.84-.15.23,0,.45.03.67.08.22.05.41.13.58.24l-.26.63c-.33-.19-.66-.28-1-.28-.23,0-.41.04-.52.11-.11.08-.17.18-.17.3s.06.22.19.27c.13.06.32.12.59.18.27.06.5.13.67.2.17.06.32.17.45.31.12.14.19.33.19.57,0,.21-.06.39-.17.56-.11.17-.29.3-.52.4-.23.1-.51.15-.84.15-.28,0-.56-.04-.82-.12Z"/>
          <path class="cls-3" d="m93.3,41.67v1.27h-.83v-1.28l-1.39-2.31h.88l.96,1.6.96-1.6h.82l-1.4,2.32Z"/>
          <path class="cls-3" d="m98.28,40.02h-1.15v-.68h3.13v.68h-1.15v2.92h-.83v-2.92Z"/>
          <path class="cls-3" d="m104.01,42.27v.67h-2.79v-3.6h2.72v.67h-1.89v.78h1.67v.65h-1.67v.83h1.96Z"/>
          <path class="cls-3" d="m105.9,42.76c-.3-.16-.53-.38-.7-.66-.17-.28-.25-.6-.25-.96s.08-.68.25-.96c.17-.28.4-.5.7-.66.3-.16.63-.24,1-.24.31,0,.59.05.85.16.25.11.46.27.63.47l-.53.49c-.24-.28-.54-.42-.9-.42-.22,0-.42.05-.6.15-.17.1-.31.23-.41.41-.1.18-.15.37-.15.6s.05.42.15.6c.1.17.23.31.41.41.17.1.37.15.6.15.36,0,.66-.14.9-.43l.53.49c-.17.21-.38.37-.64.48-.25.11-.54.16-.85.16-.37,0-.7-.08-.99-.24Z"/>
          <path class="cls-3" d="m112.75,39.34v3.6h-.68l-1.79-2.18v2.18h-.82v-3.6h.69l1.79,2.18v-2.18h.82Z"/>
          <path class="cls-3" d="m114.85,42.76c-.3-.16-.53-.38-.7-.67-.17-.28-.25-.6-.25-.95s.08-.67.25-.95c.17-.28.4-.5.7-.67.3-.16.64-.24,1.01-.24s.71.08,1.01.24c.3.16.53.38.7.67.17.28.26.6.26.95s-.09.67-.26.95c-.17.28-.41.51-.7.67-.3.16-.63.24-1.01.24s-.71-.08-1.01-.24Zm1.59-.61c.17-.1.31-.23.4-.41.1-.17.15-.37.15-.6s-.05-.42-.15-.6c-.1-.17-.23-.31-.4-.41-.17-.1-.36-.15-.58-.15s-.4.05-.58.15c-.17.1-.31.23-.4.41-.1.18-.15.37-.15.6s.05.42.15.6c.1.17.23.31.4.41.17.1.36.15.58.15s.4-.05.58-.15Z"/>
          <path class="cls-3" d="m118.97,39.34h.83v2.92h1.8v.68h-2.64v-3.6Z"/>
          <path class="cls-3" d="m123.26,42.76c-.3-.16-.53-.38-.7-.67-.17-.28-.25-.6-.25-.95s.08-.67.25-.95c.17-.28.4-.5.7-.67.3-.16.64-.24,1.01-.24s.71.08,1.01.24c.3.16.53.38.7.67.17.28.26.6.26.95s-.09.67-.26.95c-.17.28-.41.51-.7.67-.3.16-.63.24-1.01.24s-.71-.08-1.01-.24Zm1.59-.61c.17-.1.31-.23.4-.41.1-.17.15-.37.15-.6s-.05-.42-.15-.6c-.1-.17-.23-.31-.4-.41-.17-.1-.36-.15-.58-.15s-.4.05-.58.15c-.17.1-.31.23-.4.41-.1.18-.15.37-.15.6s.05.42.15.6c.1.17.23.31.4.41.17.1.36.15.58.15s.4-.05.58-.15Z"/>
          <path class="cls-3" d="m129.81,41.09h.76v1.46c-.2.15-.42.26-.68.34-.26.08-.52.12-.78.12-.37,0-.71-.08-1.01-.24-.3-.16-.53-.38-.7-.66-.17-.28-.25-.6-.25-.96s.08-.68.25-.96c.17-.28.41-.5.71-.66.3-.16.64-.24,1.02-.24.32,0,.6.05.86.16.26.11.47.26.65.46l-.53.49c-.26-.27-.57-.41-.93-.41-.23,0-.43.05-.61.14-.18.1-.32.23-.42.41-.1.18-.15.37-.15.6s.05.42.15.6c.1.17.24.31.41.41.18.1.38.15.6.15.24,0,.46-.05.65-.15v-1.05Z"/>
          <path class="cls-3" d="m132.5,38.31h.86l-.93.74h-.63l.69-.74Zm-.64,1.03h.83v3.6h-.83v-3.6Z"/>
          <path class="cls-3" d="m136.42,42.17h-1.67l-.32.77h-.85l1.6-3.6h.82l1.61,3.6h-.87l-.32-.77Zm-.26-.63l-.57-1.38-.57,1.38h1.14Z"/>
          <path class="cls-3" d="m138.86,42.89c-.27-.08-.48-.18-.64-.3l.28-.63c.15.11.34.2.55.27.21.07.42.1.64.1.24,0,.41-.04.52-.1.11-.07.17-.16.17-.28,0-.09-.03-.16-.1-.21s-.15-.1-.26-.14c-.1-.03-.25-.07-.42-.11-.27-.06-.5-.13-.67-.19-.17-.07-.32-.17-.45-.31-.13-.14-.19-.34-.19-.58,0-.21.06-.4.17-.57.11-.17.28-.3.51-.4.23-.1.51-.15.84-.15.23,0,.45.03.67.08.22.05.41.13.58.24l-.26.63c-.33-.19-.66-.28-1-.28-.23,0-.41.04-.52.11-.11.08-.17.18-.17.3s.06.22.19.27c.13.06.32.12.59.18.27.06.5.13.67.2.17.06.32.17.45.31.12.14.19.33.19.57,0,.21-.06.39-.17.56-.11.17-.29.3-.52.4-.23.1-.51.15-.84.15-.28,0-.56-.04-.82-.12Z"/>
        </g>
      </g>
    </g>
  </g>
</svg>