<?xml version="1.0" encoding="UTF-8"?>
<svg id="Capa_2" data-name="Capa 2" xmlns="http://www.w3.org/2000/svg" viewBox="0 0 137.18 32.83">
  <defs>
    <style>
      .cls-1 {
        fill: #fff;
      }
    </style>
  </defs>
  <g id="Capa_1-2" data-name="Capa 1">
    <g>
      <g>
        <path class="cls-1" d="m16.49,17.41c.53,0,.96-.43.96-.96s-.43-.96-.96-.96-.96.43-.96.96.43.96.96.96"/>
        <path class="cls-1" d="m19.02,17.08c.6,0,1.1-.49,1.1-1.1s-.49-1.1-1.1-1.1-1.1.49-1.1,1.1.49,1.1,1.1,1.1"/>
        <path class="cls-1" d="m21.69,15.84c.72,0,1.3-.58,1.3-1.3s-.58-1.3-1.3-1.3-1.3.58-1.3,1.3.58,1.3,1.3,1.3"/>
        <path class="cls-1" d="m23.89,15.9c0-1.02.83-1.85,1.85-1.85s1.85.83,1.85,1.85-.83,1.85-1.85,1.85-1.85-.83-1.85-1.85"/>
        <path class="cls-1" d="m30.42,16.92c1.31,0,2.37-1.06,2.37-2.37s-1.06-2.37-2.37-2.37-2.37,1.06-2.37,2.37,1.06,2.37,2.37,2.37"/>
        <path class="cls-1" d="m30.13,22.04c1.31,0,2.37-1.06,2.37-2.37s-1.06-2.37-2.37-2.37-2.37,1.06-2.37,2.37,1.06,2.37,2.37,2.37"/>
        <path class="cls-1" d="m25.68,24.53c0-1.31,1.06-2.37,2.37-2.37s2.37,1.06,2.37,2.37-1.06,2.37-2.37,2.37-2.37-1.06-2.37-2.37"/>
        <path class="cls-1" d="m24.4,30.54c1.31,0,2.37-1.06,2.37-2.37s-1.06-2.37-2.37-2.37-2.37,1.06-2.37,2.37,1.06,2.37,2.37,2.37"/>
        <path class="cls-1" d="m17.29,30.17c0-1.31,1.06-2.37,2.37-2.37s2.37,1.06,2.37,2.37-1.06,2.37-2.37,2.37-2.37-1.06-2.37-2.37"/>
        <path class="cls-1" d="m12.06,30.46c0-1.31,1.06-2.37,2.37-2.37s2.37,1.06,2.37,2.37-1.06,2.37-2.37,2.37-2.37-1.06-2.37-2.37"/>
        <path class="cls-1" d="m6.98,28.7c0-1.31,1.06-2.37,2.37-2.37s2.37,1.06,2.37,2.37-1.06,2.37-2.37,2.37-2.37-1.06-2.37-2.37"/>
        <path class="cls-1" d="m3.09,25.4c0-1.31,1.06-2.37,2.37-2.37s2.37,1.06,2.37,2.37-1.06,2.37-2.37,2.37-2.37-1.06-2.37-2.37"/>
        <path class="cls-1" d="m.61,20.77c0-1.31,1.06-2.37,2.37-2.37s2.37,1.06,2.37,2.37-1.06,2.37-2.37,2.37-2.37-1.06-2.37-2.37"/>
        <path class="cls-1" d="m0,15.41c0-1.31,1.06-2.37,2.37-2.37s2.37,1.06,2.37,2.37-1.06,2.37-2.37,2.37-2.37-1.06-2.37-2.37"/>
        <path class="cls-1" d="m28.9,12.18c1.31,0,2.37-1.06,2.37-2.37s-1.06-2.37-2.37-2.37-2.37,1.06-2.37,2.37,1.06,2.37,2.37,2.37"/>
        <path class="cls-1" d="m23.33,5.9c0-1.31,1.06-2.37,2.37-2.37s2.37,1.06,2.37,2.37-1.06,2.37-2.37,2.37-2.37-1.06-2.37-2.37"/>
        <path class="cls-1" d="m18.97,3.26c0-1.31,1.06-2.37,2.37-2.37s2.37,1.06,2.37,2.37-1.06,2.37-2.37,2.37-2.37-1.06-2.37-2.37"/>
        <path class="cls-1" d="m13.86,2.37c0-1.31,1.06-2.37,2.37-2.37s2.37,1.06,2.37,2.37-1.06,2.37-2.37,2.37-2.37-1.06-2.37-2.37"/>
        <path class="cls-1" d="m11.09,5.85c1.31,0,2.37-1.06,2.37-2.37s-1.06-2.37-2.37-2.37-2.37,1.06-2.37,2.37,1.06,2.37,2.37,2.37"/>
        <path class="cls-1" d="m4.36,6.23c0-1.31,1.06-2.37,2.37-2.37s2.37,1.06,2.37,2.37-1.06,2.37-2.37,2.37-2.37-1.06-2.37-2.37"/>
        <path class="cls-1" d="m1.37,10.34c0-1.31,1.06-2.37,2.37-2.37s2.37,1.06,2.37,2.37-1.06,2.37-2.37,2.37-2.37-1.06-2.37-2.37"/>
        <path class="cls-1" d="m20.01,9.02c0-1.02.83-1.85,1.85-1.85s1.85.83,1.85,1.85-.83,1.85-1.85,1.85-1.85-.83-1.85-1.85"/>
        <path class="cls-1" d="m16.25,7.35c0-1.02.83-1.85,1.85-1.85s1.85.83,1.85,1.85-.83,1.85-1.85,1.85-1.85-.83-1.85-1.85"/>
        <path class="cls-1" d="m23.26,19.83c0-1.02.83-1.85,1.85-1.85s1.85.83,1.85,1.85-.83,1.85-1.85,1.85-1.85-.83-1.85-1.85"/>
        <path class="cls-1" d="m24.58,13.88c1.02,0,1.85-.83,1.85-1.85s-.83-1.85-1.85-1.85-1.85.83-1.85,1.85.83,1.85,1.85,1.85"/>
        <path class="cls-1" d="m12.13,7.52c0-1.02.83-1.85,1.85-1.85s1.85.83,1.85,1.85-.83,1.85-1.85,1.85-1.85-.83-1.85-1.85"/>
        <path class="cls-1" d="m8.46,9.46c0-1.02.83-1.85,1.85-1.85s1.85.83,1.85,1.85-.83,1.85-1.85,1.85-1.85-.83-1.85-1.85"/>
        <path class="cls-1" d="m6.1,12.82c0-1.02.83-1.85,1.85-1.85s1.85.83,1.85,1.85-.83,1.85-1.85,1.85-1.85-.83-1.85-1.85"/>
        <path class="cls-1" d="m5.26,17.06c0-1.02.83-1.85,1.85-1.85s1.85.83,1.85,1.85-.83,1.85-1.85,1.85-1.85-.83-1.85-1.85"/>
        <path class="cls-1" d="m6.56,21.23c0-1.02.83-1.85,1.85-1.85s1.85.83,1.85,1.85-.83,1.85-1.85,1.85-1.85-.83-1.85-1.85"/>
        <path class="cls-1" d="m9.56,24.27c0-1.02.83-1.85,1.85-1.85s1.85.83,1.85,1.85-.83,1.85-1.85,1.85-1.85-.83-1.85-1.85"/>
        <path class="cls-1" d="m13.41,25.67c0-1.02.83-1.85,1.85-1.85s1.85.83,1.85,1.85-.83,1.85-1.85,1.85-1.85-.83-1.85-1.85"/>
        <path class="cls-1" d="m19.41,27.14c1.02,0,1.85-.83,1.85-1.85s-.83-1.85-1.85-1.85-1.85.83-1.85,1.85.83,1.85,1.85,1.85"/>
        <path class="cls-1" d="m22.85,25.07c1.02,0,1.85-.83,1.85-1.85s-.83-1.85-1.85-1.85-1.85.83-1.85,1.85.83,1.85,1.85,1.85"/>
        <path class="cls-1" d="m17.29,15.19c.61,0,1.1-.49,1.1-1.1s-.49-1.09-1.1-1.09-1.1.49-1.1,1.09.49,1.1,1.1,1.1"/>
        <path class="cls-1" d="m13.65,14.53c0-.61.49-1.1,1.1-1.1s1.1.49,1.1,1.1-.49,1.09-1.1,1.09-1.1-.49-1.1-1.09"/>
        <path class="cls-1" d="m13.95,18.15c.6,0,1.09-.49,1.09-1.1s-.49-1.09-1.09-1.09-1.1.49-1.1,1.09.49,1.1,1.1,1.1"/>
        <path class="cls-1" d="m15.73,20.05c.61,0,1.1-.49,1.1-1.1s-.49-1.1-1.1-1.1-1.1.49-1.1,1.1.49,1.1,1.1,1.1"/>
        <path class="cls-1" d="m18.16,19.54c.61,0,1.1-.49,1.1-1.1s-.49-1.1-1.1-1.1-1.1.49-1.1,1.1.49,1.1,1.1,1.1"/>
        <path class="cls-1" d="m15.47,10.85c0-.72.58-1.3,1.3-1.3s1.3.58,1.3,1.3-.58,1.3-1.3,1.3-1.3-.58-1.3-1.3"/>
        <path class="cls-1" d="m18.48,11.92c0-.72.58-1.3,1.3-1.3s1.3.58,1.3,1.3-.58,1.3-1.3,1.3-1.3-.58-1.3-1.3"/>
        <path class="cls-1" d="m13.72,12.81c.72,0,1.3-.58,1.3-1.3s-.58-1.3-1.3-1.3-1.3.58-1.3,1.3.58,1.3,1.3,1.3"/>
        <path class="cls-1" d="m10.24,13.68c0-.72.58-1.3,1.3-1.3s1.3.58,1.3,1.3-.58,1.3-1.3,1.3-1.3-.58-1.3-1.3"/>
        <path class="cls-1" d="m9.54,16.96c0-.72.58-1.3,1.3-1.3s1.3.58,1.3,1.3-.58,1.3-1.3,1.3-1.3-.58-1.3-1.3"/>
        <path class="cls-1" d="m12.11,21.29c.72,0,1.3-.58,1.3-1.3s-.58-1.3-1.3-1.3-1.3.58-1.3,1.3.58,1.3,1.3,1.3"/>
        <path class="cls-1" d="m14.74,23.12c.72,0,1.3-.58,1.3-1.3s-.58-1.3-1.3-1.3-1.3.58-1.3,1.3.58,1.3,1.3,1.3"/>
        <path class="cls-1" d="m16.48,21.93c0-.72.58-1.3,1.3-1.3s1.3.58,1.3,1.3-.58,1.3-1.3,1.3-1.3-.58-1.3-1.3"/>
        <path class="cls-1" d="m20.43,21.72c.72,0,1.3-.58,1.3-1.3s-.58-1.3-1.3-1.3-1.3.58-1.3,1.3.58,1.3,1.3,1.3"/>
        <path class="cls-1" d="m20.58,17.59c0-.72.58-1.3,1.3-1.3s1.3.58,1.3,1.3-.58,1.3-1.3,1.3-1.3-.58-1.3-1.3"/>
      </g>
      <g>
        <g>
          <path class="cls-1" d="m46.88,15c.12-.48.3-1.15.5-2.08.28-.02,1.2.02,1.48.07.05.63.05,1.75.05,2.37l-.22.45c-.93.63-2.43,1.15-4.13,1.15-3.57,0-5.81-2.25-5.81-5.95s2.7-6.21,6.11-6.21c1.53,0,2.8.42,3.88.97l.23.45c-.13.87-.35,2.05-.5,2.88-.3.02-1.05,0-1.38-.07-.15-1-.33-1.9-.42-2.37-.47-.27-1.15-.43-1.92-.43-.97,0-1.82.25-2.4.67-.77.92-1.3,2.27-1.3,3.98,0,2.78,1.37,4.58,3.73,4.58.98,0,1.68-.17,2.08-.45Z"/>
          <path class="cls-1" d="m50.01,11.21c0-3.88,2.43-6.43,5.96-6.43,3.2,0,5.4,2.27,5.4,5.78,0,3.72-2.33,6.38-5.78,6.38s-5.58-2.25-5.58-5.73Zm8.03,3.53c.43-.57,1.05-1.83,1.05-3.88,0-2.85-1.03-4.63-3.43-4.63-.9,0-1.73.33-2.28.73-.62.85-1.08,2.2-1.08,4.03,0,2.78,1.18,4.5,3.47,4.5,1,0,1.8-.33,2.28-.75Z"/>
          <path class="cls-1" d="m71,16.76l-1.5-2c-1.53-2.05-3.45-4.43-4.98-6.33.03,2.98.1,6.55.27,6.85.17.23,1.15.42,1.9.58l-.17.83h-4.78l-.17-.83,1.48-.43c.07-.57.12-2.08.12-4.5-.02-2.83-.03-4.23-.2-4.46-.27-.2-.93-.43-1.45-.6l.17-.83c1.05,0,2.27-.03,3.23-.05,1.15,1.9,3.98,5.43,6.35,8.4-.02-3.43-.1-6.63-.28-6.93-.13-.22-1.1-.42-1.75-.58l.18-.83h4.75l.18.83-1.5.45c-.13,1.3-.22,5.25-.22,10.28l-1.63.17Z"/>
          <path class="cls-1" d="m78.48,16.7h-4.58l-.17-.83,1.35-.43c1.13-2.73,2.27-5.83,3.35-8.76l.48-1.63c.78-.1,2.07-.18,2.82-.2.13.53.35,1.12.62,1.87,1.12,3.03,2.43,6.55,3.28,8.73l1.37.43-.17.83h-5.06l-.18-.83,1.67-.43c-.28-.75-.6-1.63-.93-2.62l-4.5.08c-.3.87-.57,1.73-.83,2.53l1.68.43-.18.83Zm3.42-5.05c-.58-1.63-1.23-3.43-1.92-5.23-.6,1.68-1.2,3.45-1.77,5.18l3.68.05Z"/>
          <path class="cls-1" d="m89.38,15.43c.05-.28.1-2.28.1-3.12v-3c0-1.03,0-2.72-.13-2.9-.15-.2-.92-.4-1.47-.55l.18-.83h5l.18.83-1.5.43c-.05.28-.1,2.28-.1,3.12v.93l5.71.05v-1.08c0-1.03,0-2.72-.13-2.9-.15-.2-.92-.4-1.47-.55l.18-.83h5l.18.83-1.5.43c-.05.28-.1,2.28-.1,3.12v3c0,1.03,0,2.72.13,2.9.15.2.92.4,1.47.55l-.18.83h-5l-.18-.83,1.5-.43c.05-.28.1-2.28.1-3.12v-.75l-5.71.08v.77c0,1.03,0,2.72.13,2.9.15.2.92.4,1.47.55l-.18.83h-5l-.18-.83,1.5-.43Z"/>
          <path class="cls-1" d="m109.76,15c.12-.48.3-1.15.5-2.08.28-.02,1.2.02,1.48.07.05.63.05,1.75.05,2.37l-.22.45c-.93.63-2.43,1.15-4.13,1.15-3.57,0-5.81-2.25-5.81-5.95s2.7-6.21,6.11-6.21c1.53,0,2.8.42,3.88.97l.23.45c-.13.87-.35,2.05-.5,2.88-.3.02-1.05,0-1.38-.07-.15-1-.33-1.9-.42-2.37-.47-.27-1.15-.43-1.92-.43-.97,0-1.82.25-2.4.67-.77.92-1.3,2.27-1.3,3.98,0,2.78,1.37,4.58,3.73,4.58.98,0,1.68-.17,2.08-.45Z"/>
          <path class="cls-1" d="m117.75,15.43c.03-.23.07-1.4.08-2.4-1.02-1.75-2.83-4.88-3.92-6.75l-1.25-.42.17-.83h5.13l.18.83-1.65.43c.68,1.37,1.72,3.2,2.9,5.23.95-1.73,1.87-3.47,2.77-5.21l-1.57-.45.17-.83h4.4l.17.83-1.38.48c-1.07,1.87-2.35,4-3.93,6.66,0,1,.02,2.15.13,2.3.13.2.9.4,1.47.55l-.18.83h-5.02l-.18-.83,1.52-.43Z"/>
          <path class="cls-1" d="m130.52,15.43c.05-.28.08-1.8.08-3.12v-6.16h-.3c-.72,0-1.48.03-2.02.1l-.47,2.17c-.35.02-1.13,0-1.47-.05-.03-1.07-.03-2.22,0-3.33h5.61c1.97,0,3.57-.02,4.81-.1.1.13.33.42.4.55-.05.88-.17,1.93-.28,2.9-.3.03-1,.02-1.32-.02l-.42-2.12c-.55-.07-1.28-.08-1.95-.08h-.43v6.25c0,1.03,0,2.72.13,2.9.13.2.92.4,1.47.55l-.18.83h-5.02l-.18-.83,1.52-.43Z"/>
        </g>
        <g>
          <path class="cls-1" d="m39.37,23.84c-.19-.1-.35-.25-.46-.43-.11-.18-.17-.39-.17-.63s.06-.44.17-.63c.11-.18.26-.33.46-.43.19-.1.41-.16.65-.16.2,0,.39.04.55.11.16.07.3.17.41.31l-.35.32c-.16-.18-.36-.27-.59-.27-.15,0-.27.03-.39.1-.11.06-.2.15-.27.27-.06.11-.1.24-.1.39s.03.27.1.39c.06.11.15.2.27.27.11.06.24.1.39.1.23,0,.43-.09.59-.28l.35.32c-.11.14-.25.24-.42.31-.17.07-.35.11-.55.11-.24,0-.45-.05-.65-.16Z"/>
          <path class="cls-1" d="m42.12,23.84c-.2-.1-.35-.25-.46-.43-.11-.18-.17-.39-.17-.62s.06-.44.17-.62c.11-.18.26-.33.46-.43.2-.1.42-.16.66-.16s.46.05.66.16c.19.11.35.25.46.43.11.18.17.39.17.62s-.06.44-.17.62c-.11.18-.26.33-.46.43-.19.11-.41.16-.66.16s-.46-.05-.66-.16Zm1.03-.4c.11-.06.2-.15.26-.27.06-.11.1-.24.1-.39s-.03-.27-.1-.39c-.06-.11-.15-.2-.26-.27-.11-.06-.24-.1-.38-.1s-.26.03-.38.1c-.11.06-.2.15-.26.27-.06.11-.1.24-.1.39s.03.27.1.39c.06.11.15.2.26.27.11.06.24.1.38.1s.26-.03.38-.1Z"/>
          <path class="cls-1" d="m46.96,21.61v2.35h-.45l-1.17-1.42v1.42h-.54v-2.35h.45l1.17,1.42v-1.42h.54Z"/>
          <path class="cls-1" d="m48.08,23.92c-.17-.05-.31-.12-.42-.2l.18-.41c.1.07.22.13.36.18.14.04.28.07.42.07.15,0,.27-.02.34-.07.07-.05.11-.11.11-.18,0-.06-.02-.1-.07-.14-.04-.04-.1-.07-.17-.09-.07-.02-.16-.05-.28-.07-.18-.04-.33-.08-.44-.13-.11-.04-.21-.11-.29-.2-.08-.09-.12-.22-.12-.38,0-.14.04-.26.11-.37.07-.11.18-.2.33-.26.15-.06.33-.1.54-.1.15,0,.3.02.44.05s.27.09.38.15l-.17.41c-.22-.12-.43-.18-.65-.18-.15,0-.26.02-.34.07-.07.05-.11.11-.11.19s.04.14.13.18c.08.04.21.08.38.12.18.04.33.08.44.13.11.04.21.11.29.2.08.09.12.22.12.37,0,.13-.04.26-.11.37-.07.11-.19.2-.34.26-.15.07-.33.1-.55.1-.19,0-.36-.03-.54-.08Z"/>
          <path class="cls-1" d="m52.14,23.52v.44h-1.82v-2.35h1.77v.44h-1.23v.51h1.09v.42h-1.09v.54h1.28Z"/>
          <path class="cls-1" d="m52.9,23.91c-.13-.06-.24-.14-.33-.25l.3-.36c.13.17.27.26.44.26.22,0,.33-.13.33-.39v-1.12h-.82v-.44h1.36v1.52c0,.29-.07.5-.21.65-.14.14-.35.22-.63.22-.16,0-.3-.03-.44-.09Z"/>
          <path class="cls-1" d="m55.53,23.84c-.2-.1-.35-.25-.46-.43-.11-.18-.17-.39-.17-.62s.06-.44.17-.62c.11-.18.26-.33.46-.43.2-.1.41-.16.66-.16s.46.05.66.16c.19.11.35.25.46.43.11.18.17.39.17.62s-.06.44-.17.62c-.11.18-.26.33-.46.43-.19.11-.41.16-.66.16s-.46-.05-.66-.16Zm1.03-.4c.11-.06.2-.15.26-.27.06-.11.1-.24.1-.39s-.03-.27-.1-.39c-.06-.11-.15-.2-.26-.27-.11-.06-.24-.1-.38-.1s-.26.03-.38.1c-.11.06-.2.15-.26.27-.06.11-.1.24-.1.39s.03.27.1.39c.06.11.15.2.26.27.11.06.24.1.38.1s.26-.03.38-.1Z"/>
          <path class="cls-1" d="m61.65,21.61v2.35h-.45l-1.17-1.42v1.42h-.54v-2.35h.45l1.17,1.42v-1.42h.54Z"/>
          <path class="cls-1" d="m64.09,23.46h-1.09l-.21.5h-.56l1.05-2.35h.54l1.05,2.35h-.57l-.21-.5Zm-.17-.41l-.37-.9-.37.9h.74Z"/>
          <path class="cls-1" d="m65.89,23.84c-.19-.1-.35-.25-.46-.43-.11-.18-.17-.39-.17-.63s.06-.44.17-.63c.11-.18.26-.33.46-.43.19-.1.41-.16.65-.16.2,0,.39.04.55.11.16.07.3.17.41.31l-.35.32c-.16-.18-.36-.27-.59-.27-.15,0-.27.03-.39.1-.11.06-.2.15-.27.27-.06.11-.1.24-.1.39s.03.27.1.39c.06.11.15.2.27.27.11.06.24.1.39.1.23,0,.43-.09.59-.28l.35.32c-.11.14-.25.24-.42.31-.17.07-.35.11-.55.11-.24,0-.46-.05-.65-.16Z"/>
          <path class="cls-1" d="m68.2,21.61h.54v2.35h-.54v-2.35Z"/>
          <path class="cls-1" d="m70.12,23.84c-.2-.1-.35-.25-.46-.43-.11-.18-.17-.39-.17-.62s.06-.44.17-.62c.11-.18.26-.33.46-.43.2-.1.42-.16.66-.16s.46.05.66.16c.19.11.35.25.46.43.11.18.17.39.17.62s-.06.44-.17.62c-.11.18-.26.33-.46.43-.19.11-.41.16-.66.16s-.46-.05-.66-.16Zm1.03-.4c.11-.06.2-.15.26-.27.06-.11.1-.24.1-.39s-.03-.27-.1-.39c-.06-.11-.15-.2-.26-.27-.11-.06-.24-.1-.38-.1s-.26.03-.38.1c-.11.06-.2.15-.26.27-.06.11-.1.24-.1.39s.03.27.1.39c.06.11.15.2.26.27.11.06.24.1.38.1s.26-.03.38-.1Z"/>
          <path class="cls-1" d="m74.95,21.61v2.35h-.45l-1.17-1.42v1.42h-.54v-2.35h.45l1.17,1.42v-1.42h.54Z"/>
          <path class="cls-1" d="m77.39,23.46h-1.09l-.21.5h-.56l1.05-2.35h.54l1.05,2.35h-.57l-.21-.5Zm-.17-.41l-.37-.9-.37.9h.74Z"/>
          <path class="cls-1" d="m78.75,21.61h.54v1.9h1.18v.44h-1.72v-2.35Z"/>
          <path class="cls-1" d="m82.39,21.61h1.07c.25,0,.48.05.68.15.2.1.35.23.46.41.11.18.16.38.16.62s-.05.44-.16.62c-.11.18-.26.31-.46.41-.2.1-.42.15-.68.15h-1.07v-2.35Zm1.04,1.9c.23,0,.42-.07.56-.2.14-.13.21-.31.21-.53s-.07-.4-.21-.53c-.14-.13-.33-.2-.56-.2h-.5v1.45h.5Z"/>
          <path class="cls-1" d="m87.31,23.52v.44h-1.82v-2.35h1.77v.44h-1.23v.51h1.09v.42h-1.09v.54h1.28Z"/>
          <path class="cls-1" d="m91.51,21.61v2.35h-.54v-.96h-1.07v.96h-.54v-2.35h.54v.93h1.07v-.93h.54Z"/>
          <path class="cls-1" d="m92.66,23.72c-.19-.19-.28-.45-.28-.79v-1.31h.54v1.29c0,.42.17.63.52.63.17,0,.3-.05.39-.15.09-.1.13-.26.13-.48v-1.29h.54v1.31c0,.34-.09.61-.28.79-.19.19-.45.28-.78.28s-.6-.09-.78-.28Z"/>
          <path class="cls-1" d="m97.52,23.96v-1.41s-.69,1.16-.69,1.16h-.24l-.69-1.13v1.38h-.51v-2.35h.45l.88,1.46.86-1.46h.45v2.35s-.5,0-.5,0Z"/>
          <path class="cls-1" d="m100.46,23.46h-1.09l-.21.5h-.56l1.05-2.35h.54l1.05,2.35h-.57l-.21-.5Zm-.17-.41l-.37-.9-.37.9h.74Z"/>
          <path class="cls-1" d="m103.97,21.61v2.35h-.45l-1.17-1.42v1.42h-.54v-2.35h.45l1.17,1.42v-1.42h.54Z"/>
          <path class="cls-1" d="m104.86,21.61h.54v2.35h-.54v-2.35Z"/>
          <path class="cls-1" d="m106.3,21.61h1.07c.25,0,.48.05.68.15.2.1.35.23.46.41.11.18.16.38.16.62s-.05.44-.16.62c-.11.18-.26.31-.46.41-.2.1-.42.15-.68.15h-1.07v-2.35Zm1.04,1.9c.23,0,.42-.07.56-.2.14-.13.21-.31.21-.53s-.07-.4-.21-.53c-.14-.13-.33-.2-.56-.2h-.5v1.45h.5Z"/>
          <path class="cls-1" d="m110.91,23.46h-1.09l-.21.5h-.56l1.05-2.35h.54l1.05,2.35h-.57l-.21-.5Zm-.17-.41l-.37-.9-.37.9h.74Z"/>
          <path class="cls-1" d="m112.27,21.61h1.07c.25,0,.48.05.68.15.2.1.35.23.46.41.11.18.16.38.16.62s-.05.44-.16.62c-.11.18-.26.31-.46.41-.2.1-.42.15-.68.15h-1.07v-2.35Zm1.04,1.9c.23,0,.42-.07.56-.2.14-.13.21-.31.21-.53s-.07-.4-.21-.53c-.14-.13-.33-.2-.56-.2h-.5v1.45h.5Z"/>
          <path class="cls-1" d="m117.19,23.52v.44h-1.82v-2.35h1.77v.44h-1.23v.51h1.09v.42h-1.09v.54h1.28Z"/>
          <path class="cls-1" d="m118.19,23.92c-.17-.05-.31-.12-.42-.2l.18-.41c.1.07.22.13.36.18.14.04.28.07.42.07.15,0,.27-.02.34-.07.07-.05.11-.11.11-.18,0-.06-.02-.1-.07-.14-.04-.04-.1-.07-.17-.09-.07-.02-.16-.05-.28-.07-.18-.04-.32-.08-.44-.13-.11-.04-.21-.11-.29-.2-.08-.09-.12-.22-.12-.38,0-.14.04-.26.11-.37.07-.11.18-.2.33-.26.15-.06.33-.1.54-.1.15,0,.3.02.44.05.14.04.27.09.38.15l-.17.41c-.22-.12-.43-.18-.65-.18-.15,0-.26.02-.34.07-.07.05-.11.11-.11.19s.04.14.13.18c.08.04.21.08.38.12.18.04.33.08.44.13.11.04.21.11.29.2.08.09.12.22.12.37,0,.13-.04.26-.11.37-.07.11-.19.2-.34.26-.15.07-.33.1-.55.1-.19,0-.36-.03-.54-.08Z"/>
          <path class="cls-1" d="m39.46,27.89c-.19-.1-.35-.25-.46-.43-.11-.18-.17-.39-.17-.63s.06-.44.17-.63c.11-.18.26-.33.46-.43.19-.1.41-.16.65-.16.2,0,.39.04.55.11.16.07.3.17.41.31l-.35.32c-.16-.18-.36-.27-.59-.27-.15,0-.27.03-.39.1-.11.06-.2.15-.27.27-.06.11-.1.24-.1.39s.03.27.1.39c.06.11.15.2.27.27.11.06.24.1.39.1.23,0,.43-.09.59-.28l.35.32c-.11.14-.25.24-.42.31-.17.07-.35.11-.55.11-.24,0-.46-.05-.65-.16Z"/>
          <path class="cls-1" d="m41.78,25.66h.54v2.35h-.54v-2.35Z"/>
          <path class="cls-1" d="m45.03,27.57v.44h-1.82v-2.35h1.77v.44h-1.23v.51h1.09v.42h-1.09v.54h1.28Z"/>
          <path class="cls-1" d="m47.95,25.66v2.35h-.45l-1.17-1.42v1.42h-.54v-2.35h.45l1.17,1.42v-1.42h.54Z"/>
          <path class="cls-1" d="m49.31,27.89c-.19-.1-.35-.25-.46-.43-.11-.18-.17-.39-.17-.63s.06-.44.17-.63c.11-.18.26-.33.46-.43.19-.1.41-.16.65-.16.2,0,.39.04.55.11.16.07.3.17.41.31l-.35.32c-.16-.18-.36-.27-.59-.27-.15,0-.27.03-.39.1-.11.06-.2.15-.27.27-.06.11-.1.24-.1.39s.03.27.1.39c.06.11.15.2.27.27.11.06.24.1.39.1.23,0,.43-.09.59-.28l.35.32c-.11.14-.25.24-.42.31-.17.07-.35.11-.55.11-.24,0-.46-.05-.65-.16Z"/>
          <path class="cls-1" d="m51.63,25.66h.54v2.35h-.54v-2.35Z"/>
          <path class="cls-1" d="m54.61,27.5h-1.09l-.21.5h-.56l1.05-2.35h.54l1.05,2.35h-.57l-.21-.5Zm-.17-.41l-.37-.9-.37.9h.74Z"/>
          <path class="cls-1" d="m56.2,27.97c-.17-.05-.31-.12-.42-.2l.18-.41c.1.07.22.13.36.18.14.04.28.07.42.07.15,0,.27-.02.34-.07.07-.05.11-.11.11-.18,0-.06-.02-.1-.07-.14-.04-.04-.1-.07-.17-.09-.07-.02-.16-.05-.28-.07-.18-.04-.33-.08-.44-.13-.11-.04-.21-.11-.29-.2-.08-.09-.12-.22-.12-.38,0-.14.04-.26.11-.37.07-.11.18-.2.33-.26.15-.06.33-.1.54-.1.15,0,.3.02.44.05.14.04.27.09.38.15l-.17.41c-.22-.12-.43-.18-.65-.18-.15,0-.26.02-.34.07-.07.05-.11.11-.11.19s.04.14.13.18c.08.04.21.08.38.12.18.04.33.08.44.13.11.04.21.11.29.2.08.09.12.22.12.37,0,.13-.04.26-.11.37-.07.11-.19.2-.34.26-.15.07-.33.1-.55.1-.19,0-.36-.03-.54-.08Z"/>
          <path class="cls-1" d="m60.85,27.17v.83h-.54v-.84l-.91-1.51h.58l.63,1.04.63-1.04h.53l-.91,1.52Z"/>
          <path class="cls-1" d="m64.1,26.1h-.75v-.44h2.04v.44h-.75v1.9h-.54v-1.9Z"/>
          <path class="cls-1" d="m67.83,27.57v.44h-1.82v-2.35h1.77v.44h-1.23v.51h1.09v.42h-1.09v.54h1.28Z"/>
          <path class="cls-1" d="m69.07,27.89c-.19-.1-.35-.25-.46-.43-.11-.18-.17-.39-.17-.63s.06-.44.17-.63c.11-.18.26-.33.46-.43.19-.1.41-.16.65-.16.2,0,.39.04.55.11.16.07.3.17.41.31l-.35.32c-.16-.18-.36-.27-.59-.27-.15,0-.27.03-.39.1-.11.06-.2.15-.27.27-.06.11-.1.24-.1.39s.03.27.1.39c.06.11.15.2.27.27.11.06.24.1.39.1.23,0,.43-.09.59-.28l.35.32c-.11.14-.25.24-.42.31-.17.07-.35.11-.55.11-.24,0-.46-.05-.65-.16Z"/>
          <path class="cls-1" d="m73.54,25.66v2.35h-.45l-1.17-1.42v1.42h-.54v-2.35h.45l1.17,1.42v-1.42h.54Z"/>
          <path class="cls-1" d="m74.91,27.89c-.2-.1-.35-.25-.46-.43-.11-.18-.17-.39-.17-.62s.06-.44.17-.62c.11-.18.26-.33.46-.43.2-.1.42-.16.66-.16s.46.05.66.16c.19.11.35.25.46.43.11.18.17.39.17.62s-.06.44-.17.62c-.11.18-.26.33-.46.43-.19.11-.41.16-.66.16s-.46-.05-.66-.16Zm1.03-.4c.11-.06.2-.15.26-.27.06-.11.1-.24.1-.39s-.03-.27-.1-.39c-.06-.11-.15-.2-.26-.27-.11-.06-.24-.1-.38-.1s-.26.03-.38.1c-.11.06-.2.15-.26.27-.06.11-.1.24-.1.39s.03.27.1.39c.06.11.15.2.26.27.11.06.24.1.38.1s.26-.03.38-.1Z"/>
          <path class="cls-1" d="m77.59,25.66h.54v1.9h1.18v.44h-1.72v-2.35Z"/>
          <path class="cls-1" d="m80.39,27.89c-.2-.1-.35-.25-.46-.43-.11-.18-.17-.39-.17-.62s.06-.44.17-.62c.11-.18.26-.33.46-.43.2-.1.42-.16.66-.16s.46.05.66.16c.19.11.35.25.46.43.11.18.17.39.17.62s-.06.44-.17.62c-.11.18-.26.33-.46.43-.19.11-.41.16-.66.16s-.46-.05-.66-.16Zm1.03-.4c.11-.06.2-.15.26-.27.06-.11.1-.24.1-.39s-.03-.27-.1-.39c-.06-.11-.15-.2-.26-.27-.11-.06-.24-.1-.38-.1s-.26.03-.38.1c-.11.06-.2.15-.26.27-.06.11-.1.24-.1.39s.03.27.1.39c.06.11.15.2.26.27.11.06.24.1.38.1s.26-.03.38-.1Z"/>
          <path class="cls-1" d="m84.66,26.8h.5v.95c-.13.1-.27.17-.44.22-.17.05-.34.08-.51.08-.24,0-.46-.05-.66-.16-.19-.1-.35-.25-.46-.43-.11-.18-.17-.39-.17-.63s.06-.44.17-.63c.11-.18.26-.33.46-.43.2-.1.42-.16.66-.16.21,0,.39.03.56.1.17.07.31.17.42.3l-.35.32c-.17-.18-.37-.26-.61-.26-.15,0-.28.03-.4.09-.12.06-.21.15-.27.26-.06.11-.1.24-.1.39s.03.27.1.39c.06.11.15.2.27.27.12.06.25.1.39.1.16,0,.3-.03.42-.1v-.69Z"/>
          <path class="cls-1" d="m86.41,24.99h.56l-.61.48h-.41l.45-.48Zm-.42.67h.54v2.35h-.54v-2.35Z"/>
          <path class="cls-1" d="m88.97,27.5h-1.09l-.21.5h-.56l1.05-2.35h.54l1.05,2.35h-.57l-.21-.5Zm-.17-.41l-.37-.9-.37.9h.74Z"/>
          <path class="cls-1" d="m90.56,27.97c-.17-.05-.31-.12-.42-.2l.18-.41c.1.07.22.13.36.18.14.04.28.07.42.07.15,0,.27-.02.34-.07.07-.05.11-.11.11-.18,0-.06-.02-.1-.07-.14-.04-.04-.1-.07-.17-.09-.07-.02-.16-.05-.28-.07-.18-.04-.33-.08-.44-.13-.11-.04-.21-.11-.29-.2-.08-.09-.12-.22-.12-.38,0-.14.04-.26.11-.37.07-.11.18-.2.33-.26.15-.06.33-.1.54-.1.15,0,.3.02.44.05.14.04.27.09.38.15l-.17.41c-.22-.12-.43-.18-.65-.18-.15,0-.26.02-.34.07-.07.05-.11.11-.11.19s.04.14.13.18c.08.04.21.08.38.12.18.04.33.08.44.13.11.04.21.11.29.2.08.09.12.22.12.37,0,.13-.04.26-.11.37-.07.11-.19.2-.34.26-.15.07-.33.1-.55.1-.19,0-.36-.03-.54-.08Z"/>
        </g>
      </g>
    </g>
  </g>
</svg>